# xmcd CD database file generated by Grip 2.94
# 
# Track frame offsets:
#       182
#       17665
#       39365
# 
# Disc length: 968 seconds
# 
# Revision: 3
# Processed by: cddbd v1.4b41PL1 Copyright (c) Steve Scherf et al.
# Submitted via: Grip 2.94
# 
DISCID=1703c603
DTITLE=Ultramarine - Happy Land [Promo Single]
DYEAR=1900
DGENRE=
TTITLE0=Happy Land [Radio Edit]
TTITLE1=Happy Land [Album Version]
TTITLE2=Goldcrest
EXTD=
EXTT0=
EXTT1=
EXTT2=
PLAYORDER=
